<svg xmlns="http://www.w3.org/2000/svg" viewBox="0 0 139.44 120.83">
<defs>
<style>.cls-1{fill:#fc6;stroke:#fc3;}.cls-1,.cls-10,.cls-11,.cls-12,.cls-13,.cls-14,.cls-15,.cls-16,.cls-17,.cls-2,.cls-3,.cls-4,.cls-5,.cls-6,.cls-7,.cls-8,.cls-9{stroke-miterlimit:10;}.cls-2{fill:#ec9126;stroke:#ec9126;}.cls-3{fill:#563407;stroke:#563407;}.cls-4{fill:#76450d;stroke:#76450d;}.cls-5{fill:#aaeb77;stroke:#499f71;}.cls-6,.cls-7{fill:#c87628;stroke:#c87628;}.cls-6,.cls-8{stroke-width:0.5px;}.cls-7{stroke-width:0.75px;}.cls-8{fill:#fbc762;stroke:#fbc762;}.cls-9{fill:#de2b1d;stroke:#a62b1d;}.cls-10{fill:#ef8069;stroke:#ef8069;}.cls-11{fill:#de2b00;stroke:#de2b1d;}.cls-12{fill:#47b01f;stroke:#22660c;}.cls-13{fill:#cfffa7;stroke:#327516;}.cls-14{fill:#84407a;stroke:#84407a;}.cls-15{fill:#e9c0d8;stroke:#e9c0d8;}.cls-16{fill:#c592af;}.cls-16,.cls-17{stroke:#c592af;}.cls-17{fill:none;}.cls-18{fill:#fff;}
</style>
</defs>
    <g id="hamburguesa">
                <path class="cls-3" d="M8.66,65.68A29.64,29.64,0,0,0,8.93,70a46.1,46.1,0,0,0,1.52,8.1c6.8,9.24,30.35,16,58.34,16,28.24,0,51.94-6.94,58.5-16.29A50.26,50.26,0,0,0,128.65,70c.19-2,.2-3.46.2-3.79,0-1.07,0-2-.11-2.64a20,20,0,0,1-2.05,3,25.81,25.81,0,0,1-9.61,6.83c-11,5-24.44,7-24.44,7a154,154,0,0,1-23.85,1.67,178.19,178.19,0,0,1-38.52-4.94A60.24,60.24,0,0,1,16.36,71.2a18.1,18.1,0,0,1-5.5-4.65,14.41,14.41,0,0,1-1.94-3.46A21.47,21.47,0,0,0,8.66,65.68Z"/>
                <path class="cls-4" d="M8.73,62.51a10.65,10.65,0,0,0,2.14,4c7.31,9,30.46,15.52,57.92,15.52s50.6-6.57,57.91-15.52a10.8,10.8,0,0,0,2.07-3.78,48.3,48.3,0,0,0-.82-6.41C122.56,46.46,98.11,39,68.79,39,39,39,14.24,46.69,9.37,56.84A49.34,49.34,0,0,0,8.73,62.51Z"/>
    </g>
</svg>