<svg xmlns="http://www.w3.org/2000/svg" viewBox="0 0 139.44 120.83">
<defs>
<style>.cls-1{fill:#fc6;stroke:#fc3;}.cls-1,.cls-10,.cls-11,.cls-12,.cls-13,.cls-14,.cls-15,.cls-16,.cls-17,.cls-2,.cls-3,.cls-4,.cls-5,.cls-6,.cls-7,.cls-8,.cls-9{stroke-miterlimit:10;}.cls-2{fill:#ec9126;stroke:#ec9126;}.cls-3{fill:#563407;stroke:#563407;}.cls-4{fill:#76450d;stroke:#76450d;}.cls-5{fill:#aaeb77;stroke:#499f71;}.cls-6,.cls-7{fill:#c87628;stroke:#c87628;}.cls-6,.cls-8{stroke-width:0.5px;}.cls-7{stroke-width:0.75px;}.cls-8{fill:#fbc762;stroke:#fbc762;}.cls-9{fill:#de2b1d;stroke:#a62b1d;}.cls-10{fill:#ef8069;stroke:#ef8069;}.cls-11{fill:#de2b00;stroke:#de2b1d;}.cls-12{fill:#47b01f;stroke:#22660c;}.cls-13{fill:#cfffa7;stroke:#327516;}.cls-14{fill:#84407a;stroke:#84407a;}.cls-15{fill:#e9c0d8;stroke:#e9c0d8;}.cls-16{fill:#c592af;}.cls-16,.cls-17{stroke:#c592af;}.cls-17{fill:none;}.cls-18{fill:#fff;}
</style>
</defs>
    <g id="hamburguesa">
                <path class="cls-14" d="M3.32,61.25c0,6.52,11.83,11.81,26.41,11.81s26.42-5.29,26.42-11.81A5.1,5.1,0,0,0,56,60.14l-.09-.39v0l-.61-2.4a5.44,5.44,0,0,1,0,.57c0,.14,0,.29,0,.44-.5,6.31-11.73,11.36-25.51,11.36-14,0-25.3-5.18-25.53-11.6a1.34,1.34,0,0,1,0-.2,5.49,5.49,0,0,1,0-.58l-.4,1.47-.57,2.07A2.88,2.88,0,0,0,3.32,61.25Z"/>
                <path class="cls-15" d="M4.31,57.3l.51-1.83c2.4-5.36,12.68-9.39,25-9.39,12.49,0,22.89,4.15,25.09,9.63l.41,1.6a5.44,5.44,0,0,1,0,.57c0,.14,0,.29,0,.44-.5,6.31-11.73,11.36-25.51,11.36-14,0-25.3-5.18-25.53-11.6a1.34,1.34,0,0,1,0-.2A5.49,5.49,0,0,1,4.31,57.3Zm4.28,1.22c1.63,4.42,10.57,7.8,21.35,7.8s19.72-3.38,21.35-7.8a4.06,4.06,0,0,0,.27-1.46,5,5,0,0,0-1.42-3.3c-3.1-3.48-11-6-20.2-6-8.85,0-16.46,2.28-19.8,5.54a5.25,5.25,0,0,0-1.82,3.72A4.06,4.06,0,0,0,8.59,58.52Z"/>
                <path class="cls-16" d="M8.32,57.06a4.06,4.06,0,0,0,.27,1.46c1.62-4.42,10.56-7.8,21.35-7.8s19.73,3.38,21.35,7.8a4.06,4.06,0,0,0,.27-1.46,5,5,0,0,0-1.42-3.3c-3.1-3.48-11-6-20.2-6-8.85,0-16.46,2.28-19.8,5.54A5.25,5.25,0,0,0,8.32,57.06Z"/>
                <path class="cls-17" d="M8.59,58.52c1.63,4.42,10.57,7.8,21.35,7.8s19.72-3.38,21.35-7.8c-1.62-4.42-10.56-7.8-21.35-7.8S10.21,54.1,8.59,58.52Z"/>
                <path class="cls-14" d="M66.67,73.87c0,6.52,11.83,11.8,26.42,11.8s26.41-5.28,26.41-11.8a5.8,5.8,0,0,0-.11-1.11l-.1-.39v0l-.61-2.41a5.78,5.78,0,0,1,0,.58c0,.14,0,.29,0,.44C118.18,77.25,107,82.3,93.17,82.3c-14,0-25.3-5.18-25.53-11.6v-.2a5.49,5.49,0,0,1,0-.58l-.41,1.47-.57,2.07C66.68,73.6,66.67,73.74,66.67,73.87Z"/>
                <path class="cls-15" d="M68,69.92l.51-1.83c2.4-5.36,12.68-9.39,25-9.39,12.49,0,22.89,4.15,25.09,9.63l.41,1.59a5.78,5.78,0,0,1,0,.58c0,.14,0,.29,0,.44-.5,6.31-11.73,11.36-25.51,11.36-14,0-25.3-5.18-25.53-11.6v-.2C68,70.3,68,70.11,68,69.92Zm4.28,1.22c1.63,4.42,10.57,7.8,21.35,7.8s19.73-3.38,21.35-7.8a4.1,4.1,0,0,0,.27-1.46,5,5,0,0,0-1.41-3.3c-3.11-3.48-11-6-20.21-6-8.85,0-16.45,2.28-19.8,5.54a5.25,5.25,0,0,0-1.82,3.72A4.33,4.33,0,0,0,72.32,71.14Z"/>
                <path class="cls-16" d="M71.68,69.68a4.32,4.32,0,0,0,.26,1.46c1.63-4.42,10.57-7.8,21.35-7.8s19.73,3.38,21.36,7.8a4.32,4.32,0,0,0,.26-1.46,5,5,0,0,0-1.41-3.3c-3.11-3.48-11-6-20.21-6-8.84,0-16.45,2.28-19.8,5.54A5.24,5.24,0,0,0,71.68,69.68Z"/>
                <path class="cls-17" d="M71.94,71.14c1.63,4.42,10.57,7.8,21.35,7.8s19.73-3.38,21.36-7.8c-1.63-4.42-10.57-7.8-21.36-7.8S73.57,66.72,71.94,71.14Z"/>
                <path class="cls-14" d="M63.52,40.67c0,6.52,11.82,11.8,26.41,11.8s26.42-5.28,26.42-11.8a5.26,5.26,0,0,0-.12-1.12l-.1-.38v0l-.6-2.41c0,.19,0,.38,0,.58s0,.29,0,.44C115,44.05,103.79,49.1,90,49.1c-14,0-25.3-5.18-25.52-11.61a1.21,1.21,0,0,1,0-.19,5.49,5.49,0,0,1,0-.58l-.4,1.46-.57,2.08A2.75,2.75,0,0,0,63.52,40.67Z"/>
                <path class="cls-15" d="M64.51,36.72,65,34.89c2.4-5.36,12.68-9.4,25-9.4,12.5,0,22.9,4.15,25.1,9.64l.41,1.59c0,.19,0,.38,0,.58s0,.29,0,.44C115,44.05,103.79,49.1,90,49.1c-14,0-25.3-5.18-25.52-11.61a1.21,1.21,0,0,1,0-.19A5.49,5.49,0,0,1,64.51,36.72Zm4.28,1.22c1.63,4.42,10.57,7.8,21.35,7.8s19.72-3.38,21.35-7.8a4.14,4.14,0,0,0,.27-1.46,4.94,4.94,0,0,0-1.42-3.3c-3.11-3.49-11-6-20.2-6-8.85,0-16.46,2.28-19.8,5.54a5.25,5.25,0,0,0-1.82,3.72A4.14,4.14,0,0,0,68.79,37.94Z"/>
                <path class="cls-16" d="M68.52,36.48a4.14,4.14,0,0,0,.27,1.46c1.62-4.42,10.56-7.81,21.35-7.81s19.73,3.39,21.35,7.81a4.14,4.14,0,0,0,.27-1.46,4.94,4.94,0,0,0-1.42-3.3c-3.11-3.49-11-6-20.2-6-8.85,0-16.46,2.28-19.8,5.54A5.25,5.25,0,0,0,68.52,36.48Z"/>
                <path class="cls-17" d="M68.79,37.94c1.63,4.42,10.57,7.8,21.35,7.8s19.72-3.38,21.35-7.8c-1.62-4.42-10.56-7.81-21.35-7.81S70.41,33.52,68.79,37.94Z"/>
    </g>
</svg>