<svg xmlns="http://www.w3.org/2000/svg" viewBox="0 0 139.44 120.83">
<defs>
<style>.cls-1{fill:#fc6;stroke:#fc3;}.cls-1,.cls-10,.cls-11,.cls-12,.cls-13,.cls-14,.cls-15,.cls-16,.cls-17,.cls-2,.cls-3,.cls-4,.cls-5,.cls-6,.cls-7,.cls-8,.cls-9{stroke-miterlimit:10;}.cls-2{fill:#ec9126;stroke:#ec9126;}.cls-3{fill:#563407;stroke:#563407;}.cls-4{fill:#76450d;stroke:#76450d;}.cls-5{fill:#aaeb77;stroke:#499f71;}.cls-6,.cls-7{fill:#c87628;stroke:#c87628;}.cls-6,.cls-8{stroke-width:0.5px;}.cls-7{stroke-width:0.75px;}.cls-8{fill:#fbc762;stroke:#fbc762;}.cls-9{fill:#de2b1d;stroke:#a62b1d;}.cls-10{fill:#ef8069;stroke:#ef8069;}.cls-11{fill:#de2b00;stroke:#de2b1d;}.cls-12{fill:#47b01f;stroke:#22660c;}.cls-13{fill:#cfffa7;stroke:#327516;}.cls-14{fill:#84407a;stroke:#84407a;}.cls-15{fill:#e9c0d8;stroke:#e9c0d8;}.cls-16{fill:#c592af;}.cls-16,.cls-17{stroke:#c592af;}.cls-17{fill:none;}.cls-18{fill:#fff;}
</style>
</defs>
    <g id="hamburguesa">
                <path class="cls-5" d="M133.82,62c-1.07,1.59-4,.43-7.36,2.27a8.85,8.85,0,0,0-.81.52l-.26.18c-.16.12-.3.24-.4.33s-.39.35-.65.62a4.48,4.48,0,0,0-.36.4,10.76,10.76,0,0,0-2,3.55c-1.81,5.26-1.51,6.46-2.82,8.16a7.94,7.94,0,0,1-2.82,2.23l0,0-1.1.46-.49.19a14.4,14.4,0,0,1-6.68-.35c-3-.92-5.09-2.75-9.31-3.07l-.67,0h-.93l-.22,0-.42,0h0l-.36.06a7,7,0,0,0-1.13.29,6.31,6.31,0,0,0-1.19.54,3.45,3.45,0,0,0-.34.19l-.33.21-.44.32c-3.06,2.36-3.93,4.54-6.66,6.35a16.84,16.84,0,0,1-6.68,2.35,17.55,17.55,0,0,1-1.76.24s0,0,0,0c-.84,0-1.7.07-2.55.09h0l-.86,0H74A7.29,7.29,0,0,1,72.75,88C69,87.09,68,83.37,64.42,81.36h0a8,8,0,0,0-4.25-1.21h-.41a8.85,8.85,0,0,0-1.14.11c-4.07.66-6.35,4.43-9.76,5.59a5.86,5.86,0,0,1-2,.36,4.72,4.72,0,0,1-.53,0l-.25,0-1-.17-.58-.11-1.24-.24c-.65-.13-4.23-1-9.11-2.23l-.44-.22a34.51,34.51,0,0,1-14.12-5.1,34.09,34.09,0,0,1-5.5-4.4l-.26.15.26-.15a18.81,18.81,0,0,1-5.86-7.61c-.05-.18-.13-.47-.21-.82-.26-1.2-.23-1.73-.44-2.65a9.57,9.57,0,0,0-.47-1.5c0-.09-.06-.19-.09-.29-1.82-5.62-4.38-7.91-3.5-10.69h0a8,8,0,0,1,3-3.16l1.8-.8h0a7.22,7.22,0,0,1,.74-.2l.08,0c3.32-.74,4.6.87,8.27.42a21.52,21.52,0,0,0,4.47-1.25c.74-.25,1.41-.52,2-.76l.07,0c.38-.15.73-.31,1-.45l.18-.09a76.58,76.58,0,0,1,8.2-3l.09,0c.22,0,.52-.13.86-.24l.32-.1.1,0a6.25,6.25,0,0,0,2.13-1.09A8.63,8.63,0,0,0,38,38.09,12.85,12.85,0,0,0,38.74,37c1.74-2.64,3.85-5.85,7.07-7a8.12,8.12,0,0,1,2.4-.47h.52l.4,0,.35,0,.41.05a4,4,0,0,1,.5.09c3.1.58,5.06,2.5,6.45,3.52,1.73,1.25,4.61,2.57,9.53,2.44a15.6,15.6,0,0,0,8.11-2.34c2.45-1.6,4-3.76,7.1-4.46l.31-.07.19,0h0a8.68,8.68,0,0,1,2.22-.1c.22,0,.42,0,.59.06a10.32,10.32,0,0,1,2,.45c3.83,1.29,5.1,4.34,7.8,6.66a14,14,0,0,0,5.14,2.75h.06l.13,0h0a19.47,19.47,0,0,0,2.32.52l-.68-.16.45.09a26.46,26.46,0,0,0,8.71.67c4-.55,4.81-2.27,8.66-2.16h0a11.71,11.71,0,0,1,2.86.46h0l.11,0a8.09,8.09,0,0,1,3.88,3.06l.15.23.16.29a11.59,11.59,0,0,1,.78,1.87h0c.47,1.36.25,1.5,1,4.62a19.8,19.8,0,0,0,.62,2.2,19.45,19.45,0,0,0,2.17,3.69l0,.07c.46.7,1.09,1.72,1.79,3a12.11,12.11,0,0,1,.88,2.8,4.14,4.14,0,0,1,.07.45A2.26,2.26,0,0,1,133.82,62Z"/>                
    </g>
</svg>