<svg xmlns="http://www.w3.org/2000/svg" viewBox="0 0 139.44 120.83">
<defs>
<style>.cls-1{fill:#fc6;stroke:#fc3;}.cls-1,.cls-10,.cls-11,.cls-12,.cls-13,.cls-14,.cls-15,.cls-16,.cls-17,.cls-2,.cls-3,.cls-4,.cls-5,.cls-6,.cls-7,.cls-8,.cls-9{stroke-miterlimit:10;}.cls-2{fill:#ec9126;stroke:#ec9126;}.cls-3{fill:#563407;stroke:#563407;}.cls-4{fill:#76450d;stroke:#76450d;}.cls-5{fill:#aaeb77;stroke:#499f71;}.cls-6,.cls-7{fill:#c87628;stroke:#c87628;}.cls-6,.cls-8{stroke-width:0.5px;}.cls-7{stroke-width:0.75px;}.cls-8{fill:#fbc762;stroke:#fbc762;}.cls-9{fill:#de2b1d;stroke:#a62b1d;}.cls-10{fill:#ef8069;stroke:#ef8069;}.cls-11{fill:#de2b00;stroke:#de2b1d;}.cls-12{fill:#47b01f;stroke:#22660c;}.cls-13{fill:#cfffa7;stroke:#327516;}.cls-14{fill:#84407a;stroke:#84407a;}.cls-15{fill:#e9c0d8;stroke:#e9c0d8;}.cls-16{fill:#c592af;}.cls-16,.cls-17{stroke:#c592af;}.cls-17{fill:none;}.cls-18{fill:#fff;}
</style>
</defs>
    <g id="hamburguesa">

                <path class="cls-2" d="M132.53,34.64a29.18,29.18,0,0,1,.57,4A36.33,36.33,0,0,1,132,51.1a24.16,24.16,0,0,1-1.2,3.46c-2.43,5.59-23.1,22.33-61.32,22.87-11.22.16-50.63.72-61.19-20.66a25.27,25.27,0,0,1-1.7-4.54,30.31,30.31,0,0,1-.24-12.95,31.9,31.9,0,0,1,1.4-4.76,37.35,37.35,0,0,1,9.06-14.63,46.47,46.47,0,0,1,6.81-5.11A90.42,90.42,0,0,1,34.37,8.54,82.48,82.48,0,0,1,52,2.3,79.71,79.71,0,0,1,70.54.5a82.83,82.83,0,0,1,18.3,1.8A87.74,87.74,0,0,1,107,8.54a66.5,66.5,0,0,1,9.65,5.11A40.36,40.36,0,0,1,124,19.32,32.11,32.11,0,0,1,132.53,34.64Z"/>
                <path class="cls-18" d="M108,42.18a1,1,0,0,1-.52.7,1,1,0,0,1-.89-.05c-.94-.55-1.2-3.15-.64-3.41S108.26,41.09,108,42.18Z"/>
                <path class="cls-18" d="M92.16,40.6a1,1,0,0,0,.88,0,1,1,0,0,0,.5-.74c.14-1.08-1.77-2.87-2.31-2.58S91.17,40.11,92.16,40.6Z"/>
                <path class="cls-18" d="M96.37,28.28a1.07,1.07,0,0,0,.88,0,1,1,0,0,0,.49-.74c.14-1.08-1.77-2.87-2.31-2.58S95.37,27.79,96.37,28.28Z"/>
                <path class="cls-18" d="M120.94,35.92a1.07,1.07,0,0,0,.88,0,1,1,0,0,0,.5-.74c.14-1.08-1.77-2.87-2.31-2.58S119.94,35.43,120.94,35.92Z"/>
                <path class="cls-18" d="M68.26,8A1,1,0,0,0,69,8.4,1,1,0,0,0,69.82,8c.66-.87-.1-3.37-.72-3.39S67.64,7,68.26,8Z"/>
                <path class="cls-18" d="M82.2,31.15a1,1,0,0,0,.86.15,1,1,0,0,0,.62-.65c.31-1-1.29-3.12-1.87-2.92S81.29,30.51,82.2,31.15Z"/>
                <path class="cls-18" d="M99.74,55.81a1,1,0,0,0,.87,0,1,1,0,0,0,.5-.74c.14-1.08-1.77-2.87-2.31-2.58S98.74,55.33,99.74,55.81Z"/>
                <path class="cls-18" d="M97.64,15.7a1,1,0,0,0,.88,0A1,1,0,0,0,99,15c.14-1.09-1.77-2.88-2.32-2.58S96.64,15.22,97.64,15.7Z"/>
                <path class="cls-18" d="M111.63,25.09a1,1,0,0,0,.87-.12,1,1,0,0,0,.38-.81c0-1.09-2.19-2.57-2.68-2.19S110.57,24.76,111.63,25.09Z"/>
                <path class="cls-18" d="M119.39,50.71a1,1,0,0,0,.88,0,1,1,0,0,0,.5-.74c.14-1.08-1.77-2.87-2.31-2.58S118.39,50.23,119.39,50.71Z"/>
                <path class="cls-18" d="M81.77,18.1a1,1,0,0,0,.88,0,1,1,0,0,0,.5-.74c.14-1.09-1.77-2.88-2.31-2.58S80.77,17.62,81.77,18.1Z"/>
                <path class="cls-18" d="M83.74,8.53a1,1,0,0,0,.87,0,1,1,0,0,0,.5-.74c.14-1.08-1.77-2.87-2.31-2.58S82.74,8,83.74,8.53Z"/>
                <path class="cls-18" d="M52.76,8.39a1,1,0,0,1-.84-.24,1,1,0,0,1-.25-.86c.18-1.07,2.54-2.21,3-1.77S53.86,8.23,52.76,8.39Z"/>
                <path class="cls-18" d="M50,44.45a1,1,0,0,1-.84-.24,1,1,0,0,1-.26-.86c.18-1.07,2.53-2.22,3-1.79S51.07,44.28,50,44.45Z"/>
                <path class="cls-18" d="M39.37,63.82a1,1,0,0,1-.88,0,1,1,0,0,1-.5-.74c-.14-1.08,1.77-2.87,2.31-2.58S40.36,63.33,39.37,63.82Z"/>
                <path class="cls-18" d="M34.76,33.51a1,1,0,0,1-.88,0,1,1,0,0,1-.5-.74c-.14-1.09,1.77-2.88,2.31-2.59S35.75,33,34.76,33.51Z"/>
                <path class="cls-18" d="M35.78,46.89a1,1,0,0,1-.88,0,1,1,0,0,1-.49-.74c-.15-1.08,1.77-2.87,2.31-2.58S36.78,46.41,35.78,46.89Z"/>
                <path class="cls-18" d="M21,54.45a1,1,0,0,1-.88,0,1,1,0,0,1-.5-.74c-.14-1.09,1.77-2.88,2.31-2.58S22,54,21,54.45Z"/>
                <path class="cls-18" d="M33.06,19.15a1.07,1.07,0,0,1-.88,0,1,1,0,0,1-.5-.74c-.14-1.08,1.77-2.87,2.31-2.58S34.06,18.66,33.06,19.15Z"/>
                <path class="cls-18" d="M20.32,31.79a1,1,0,0,1-.88,0,1,1,0,0,1-.49-.74c-.14-1.08,1.77-2.87,2.31-2.58S21.32,31.3,20.32,31.79Z"/>
                <path class="cls-18" d="M50.35,28A.93.93,0,0,1,49,27.11c0-1.09,2-2.71,2.53-2.37S51.39,27.55,50.35,28Z"/>
                <path class="cls-18" d="M51.13,56.35a1.07,1.07,0,0,1-.87-.12,1,1,0,0,1-.38-.81c0-1.09,2.19-2.57,2.68-2.2S52.19,56,51.13,56.35Z"/>
                <path class="cls-18" d="M44.87,18.08A1,1,0,0,1,44,18a1,1,0,0,1-.43-.78c-.05-1.09,2-2.71,2.52-2.37S45.9,17.68,44.87,18.08Z"/>
                <path class="cls-18" d="M84,50.32a1.06,1.06,0,0,0,.87.16,1,1,0,0,0,.61-.65c.32-1-1.28-3.12-1.86-2.92S83.14,49.68,84,50.32Z"/>
                <path class="cls-18" d="M64.93,19.36a1,1,0,0,0,.55.68,1,1,0,0,0,.89-.1c.92-.6,1-3.21.46-3.44S64.65,18.29,64.93,19.36Z"/>
                <path class="cls-18" d="M58.47,36.13a1,1,0,0,0,.56.67,1,1,0,0,0,.88-.1c.92-.59,1-3.21.47-3.43S58.19,35.05,58.47,36.13Z"/>
                <path class="cls-18" d="M64.51,50a1.06,1.06,0,0,0,.56.68,1,1,0,0,0,.89-.11c.91-.59,1-3.21.46-3.43S64.23,48.9,64.51,50Z"/>
                <path class="cls-18" d="M58.47,65.58a1,1,0,0,0,.56.68,1,1,0,0,0,.88-.1c.92-.6,1-3.21.47-3.43S58.19,64.51,58.47,65.58Z"/>
                <path class="cls-18" d="M76.1,26.56a1,1,0,0,1-.55.68,1,1,0,0,1-.89-.1c-.92-.6-1-3.21-.46-3.44S76.38,25.49,76.1,26.56Z"/>
                <path class="cls-18" d="M76.79,58.79a1.06,1.06,0,0,1-.56.68,1,1,0,0,1-.89-.1c-.91-.6-1-3.21-.46-3.44S77.06,57.72,76.79,58.79Z"/>
                <path class="cls-18" d="M75.64,39.59a1,1,0,0,1-.56.68,1,1,0,0,1-.88-.1c-.92-.6-1-3.22-.46-3.44S75.92,38.52,75.64,39.59Z"/>
                <path class="cls-18" d="M91.57,64.16a1,1,0,0,1-.55.67,1,1,0,0,1-.89-.1c-.92-.59-1-3.21-.46-3.43S91.85,63.08,91.57,64.16Z"/>
    </g>
</svg>