<svg xmlns="http://www.w3.org/2000/svg" viewBox="0 0 139.44 120.83">
<defs>
<style>.cls-1{fill:#fc6;stroke:#fc3;}.cls-1,.cls-10,.cls-11,.cls-12,.cls-13,.cls-14,.cls-15,.cls-16,.cls-17,.cls-2,.cls-3,.cls-4,.cls-5,.cls-6,.cls-7,.cls-8,.cls-9{stroke-miterlimit:10;}.cls-2{fill:#ec9126;stroke:#ec9126;}.cls-3{fill:#563407;stroke:#563407;}.cls-4{fill:#76450d;stroke:#76450d;}.cls-5{fill:#aaeb77;stroke:#499f71;}.cls-6,.cls-7{fill:#c87628;stroke:#c87628;}.cls-6,.cls-8{stroke-width:0.5px;}.cls-7{stroke-width:0.75px;}.cls-8{fill:#fbc762;stroke:#fbc762;}.cls-9{fill:#de2b1d;stroke:#a62b1d;}.cls-10{fill:#ef8069;stroke:#ef8069;}.cls-11{fill:#de2b00;stroke:#de2b1d;}.cls-12{fill:#47b01f;stroke:#22660c;}.cls-13{fill:#cfffa7;stroke:#327516;}.cls-14{fill:#84407a;stroke:#84407a;}.cls-15{fill:#e9c0d8;stroke:#e9c0d8;}.cls-16{fill:#c592af;}.cls-16,.cls-17{stroke:#c592af;}.cls-17{fill:none;}.cls-18{fill:#fff;}
</style>
</defs>
    <g id="hamburguesa">
                <path class="cls-1" d="M133.82,81.2a17.62,17.62,0,0,0-.29-2.35,21.1,21.1,0,0,0-4.69-9.57c-1.17-1.44-3.21-3.53-8-6.51-1.49-.93-7.75-4.71-18.55-7.66a106.31,106.31,0,0,0-15.63-2.92A148.67,148.67,0,0,0,69,51,125.82,125.82,0,0,0,41,53.69a97.75,97.75,0,0,0-11.33,3.25,64,64,0,0,0-11.74,5c-4.65,2.67-10.28,5.9-13.08,12.32C4,76.25,3,78.57,3.27,81.2c.22,1.92,1.66,8.58,21.32,15.44,9.17,3.2,22.86,6.64,44.38,6.47C84.48,103,99,101,113.27,96,114.44,95.54,133.92,88.47,133.82,81.2Z"/>
                <path class="cls-2" d="M128.76,99.87a54.38,54.38,0,0,1-4.28,4.11c-10,8.62-20.63,11.22-29.87,13.38a118.44,118.44,0,0,1-40.91,2.09,107.36,107.36,0,0,1-23-5.55c-11.42-4.12-16.2-8-19.3-11.5a35.36,35.36,0,0,1-3.71-5Q5.89,91,4.08,84.64a25.06,25.06,0,0,0,6.06,6.3,31.54,31.54,0,0,0,6.07,3.23,91.64,91.64,0,0,0,15.23,5.32c1.65.42,2.91.69,3.39.79,3.68.77,6.54,1.06,8.27,1.29a198.83,198.83,0,0,0,21.31,1.94,166.54,166.54,0,0,0,37.49-3.67c11.65-2.43,18.17-5.45,22.44-8.14,1.81-1.14,3.43-2.41,3.43-2.41a28.88,28.88,0,0,0,3.2-2.85,28.24,28.24,0,0,0,2.47-2.91,125.43,125.43,0,0,1-3.62,13.28C129.48,97.85,129.12,98.87,128.76,99.87Z"/>       
    </g>
</svg>